<svg xmlns="http://www.w3.org/2000/svg" width="19" height="24" viewBox="0 0 19 24">
  <g id="calculator" transform="translate(10 3)">
    <path id="Path_626" data-name="Path 626" d="M21,0H4A.945.945,0,0,0,3,1V23a.945.945,0,0,0,1,1H21a.945.945,0,0,0,1-1V1A.945.945,0,0,0,21,0ZM9,20a.945.945,0,0,1-1,1H7a.945.945,0,0,1-1-1V19a.945.945,0,0,1,1-1H8a.945.945,0,0,1,1,1Zm0-5a.945.945,0,0,1-1,1H7a.945.945,0,0,1-1-1V14a.945.945,0,0,1,1-1H8a.945.945,0,0,1,1,1Zm0-5a.945.945,0,0,1-1,1H7a.945.945,0,0,1-1-1V9A.945.945,0,0,1,7,8H8A.945.945,0,0,1,9,9Zm5,10a.945.945,0,0,1-1,1H12a.945.945,0,0,1-1-1V19a.945.945,0,0,1,1-1h1a.945.945,0,0,1,1,1Zm0-5a.945.945,0,0,1-1,1H12a.945.945,0,0,1-1-1V14a.945.945,0,0,1,1-1h1a.945.945,0,0,1,1,1Zm0-5a.945.945,0,0,1-1,1H12a.945.945,0,0,1-1-1V9a.945.945,0,0,1,1-1h1a.945.945,0,0,1,1,1Zm5,10a.945.945,0,0,1-1,1H17a.945.945,0,0,1-1-1V14a.945.945,0,0,1,1-1h1a.945.945,0,0,1,1,1Zm0-10a.945.945,0,0,1-1,1H17a.945.945,0,0,1-1-1V9a.945.945,0,0,1,1-1h1a.945.945,0,0,1,1,1Zm0-5a.945.945,0,0,1-1,1H7A.945.945,0,0,1,6,5V4A.945.945,0,0,1,7,3H18a.945.945,0,0,1,1,1Z" transform="translate(-13 -3)" fill="#fff"/>
  </g>
</svg>
