<svg xmlns="http://www.w3.org/2000/svg" width="70.555" height="68.203" viewBox="0 0 70.555 68.203">
  <g id="Group_12881" data-name="Group 12881" transform="translate(-121 -364)">
    <g id="Path_16697" data-name="Path 16697" transform="translate(129.525 411.331)">
      <path id="Path_1193" data-name="Path 1193" d="M142.067,417.773H130.308a2.068,2.068,0,0,1-2.058-2.058v-9.407a2.068,2.068,0,0,1,2.058-2.058h11.759a2.068,2.068,0,0,1,2.058,2.058v9.407A2.068,2.068,0,0,1,142.067,417.773Zm-11.759-11.759a.291.291,0,0,0-.294.294v9.407a.291.291,0,0,0,.294.294h11.759a.291.291,0,0,0,.294-.294v-9.407a.291.291,0,0,0-.294-.294Z" transform="translate(-128.25 -404.25)" fill="#002395"/>
    </g>
    <g id="Path_16698" data-name="Path 16698" transform="translate(129.525 394.868)">
      <path id="Path_1194" data-name="Path 1194" d="M142.067,403.773H130.308a2.068,2.068,0,0,1-2.058-2.058v-9.407a2.068,2.068,0,0,1,2.058-2.058h11.759a2.068,2.068,0,0,1,2.058,2.058v9.407A2.068,2.068,0,0,1,142.067,403.773Zm-11.759-11.759a.291.291,0,0,0-.294.294v9.407a.291.291,0,0,0,.294.294h11.759a.291.291,0,0,0,.294-.294v-9.407a.291.291,0,0,0-.294-.294Z" transform="translate(-128.25 -390.25)" fill="#002395"/>
    </g>
    <g id="Path_16699" data-name="Path 16699" transform="translate(148.34 411.331)">
      <path id="Path_1195" data-name="Path 1195" d="M158.067,417.773H146.308a2.068,2.068,0,0,1-2.058-2.058v-9.407a2.068,2.068,0,0,1,2.058-2.058h11.759a2.068,2.068,0,0,1,2.058,2.058v9.407A2.068,2.068,0,0,1,158.067,417.773Zm-11.759-11.759a.291.291,0,0,0-.294.294v9.407a.291.291,0,0,0,.294.294h11.759a.291.291,0,0,0,.294-.294v-9.407a.291.291,0,0,0-.294-.294Z" transform="translate(-144.25 -404.25)" fill="#002395"/>
    </g>
    <g id="Path_16700" data-name="Path 16700" transform="translate(148.34 394.868)">
      <path id="Path_1196" data-name="Path 1196" d="M158.067,403.773H146.308a2.068,2.068,0,0,1-2.058-2.058v-9.407a2.068,2.068,0,0,1,2.058-2.058h11.759a2.068,2.068,0,0,1,2.058,2.058v9.407A2.068,2.068,0,0,1,158.067,403.773Zm-11.759-11.759a.291.291,0,0,0-.294.294v9.407a.291.291,0,0,0,.294.294h11.759a.291.291,0,0,0,.294-.294v-9.407a.291.291,0,0,0-.294-.294Z" transform="translate(-144.25 -390.25)" fill="#002395"/>
    </g>
    <g id="Path_16701" data-name="Path 16701" transform="translate(167.155 394.868)">
      <path id="Path_1197" data-name="Path 1197" d="M174.067,403.773H162.308a2.068,2.068,0,0,1-2.058-2.058v-9.407a2.068,2.068,0,0,1,2.058-2.058h11.759a2.068,2.068,0,0,1,2.058,2.058v9.407A2.068,2.068,0,0,1,174.067,403.773Zm-11.759-11.759a.291.291,0,0,0-.294.294v9.407a.291.291,0,0,0,.294.294h11.759a.291.291,0,0,0,.294-.294v-9.407a.291.291,0,0,0-.294-.294Z" transform="translate(-160.25 -390.25)" fill="#002395"/>
    </g>
    <g id="Path_16705" data-name="Path 16705" transform="translate(167.155 411.331)">
      <path id="Path_1198" data-name="Path 1198" d="M174.067,417.773H162.308a2.068,2.068,0,0,1-2.058-2.058v-9.407a2.068,2.068,0,0,1,2.058-2.058h11.759a2.068,2.068,0,0,1,2.058,2.058v9.407A2.068,2.068,0,0,1,174.067,417.773Zm-11.759-11.759a.291.291,0,0,0-.294.294v9.407a.291.291,0,0,0,.294.294h11.759a.291.291,0,0,0,.294-.294v-9.407a.291.291,0,0,0-.294-.294Z" transform="translate(-160.25 -404.25)" fill="#002395"/>
    </g>
    <path id="Path_16702" data-name="Path 16702" d="M184.5,373H128.055A7.061,7.061,0,0,0,121,380.056v43.509a7.061,7.061,0,0,0,7.055,7.056H184.5a7.061,7.061,0,0,0,7.055-7.056V380.056A7.061,7.061,0,0,0,184.5,373Zm0,55.268H128.055a4.7,4.7,0,0,1-4.7-4.7V388.287H189.2v35.277A4.7,4.7,0,0,1,184.5,428.268Z" transform="translate(0 1.583)" fill="#002395"/>
    <path id="Path_16703" data-name="Path 16703" d="M168.7,372.231v-5.88a2.352,2.352,0,1,0-4.7,0v5.88Z" transform="translate(7.564)" fill="#002395"/>
    <path id="Path_16704" data-name="Path 16704" d="M138.7,372.231v-5.88a2.352,2.352,0,1,0-4.7,0v5.88Z" transform="translate(2.287)" fill="#002395"/>
    <g id="check" transform="translate(171.024 414.45)">
      <g id="Group_17102" data-name="Group 17102">
        <path id="Path_16706" data-name="Path 16706" d="M170.512,407.113l-4.257,4.257-1.552-1.552a.674.674,0,0,0-.976.929l.023.023,2.023,2.034a.681.681,0,0,0,.952,0l4.739-4.739a.674.674,0,1,0-.929-.976Z" transform="translate(-163.54 -406.903)" fill="#002395"/>
      </g>
    </g>
    <g id="check-2" transform="translate(152.209 397.988)">
      <g id="Group_17102-2" data-name="Group 17102-2">
        <path id="Path_16706-2" data-name="Path 16706-2" d="M154.512,393.113l-4.257,4.257-1.552-1.552a.674.674,0,0,0-.976.929l.024.024,2.023,2.034a.682.682,0,0,0,.952,0l4.739-4.739a.674.674,0,1,0-.929-.976Z" transform="translate(-147.54 -392.903)" fill="#002395"/>
      </g>
    </g>
  </g>
</svg>
