<svg xmlns="http://www.w3.org/2000/svg" width="34.89" height="33.727" viewBox="0 0 34.89 33.727">
    <defs>
        <style>
            .cls-1{fill:#009fee}
        </style>
    </defs>
    <g id="Group_12856" data-name="Group 12856" transform="translate(-121 -364)">
        <g id="Path_16697" data-name="Path 16697" transform="translate(125.216 387.405)">
            <path id="Path_1193" d="M135.083 410.937h-5.815a1.023 1.023 0 0 1-1.018-1.018v-4.652a1.023 1.023 0 0 1 1.018-1.018h5.815a1.022 1.022 0 0 1 1.018 1.018v4.652a1.023 1.023 0 0 1-1.018 1.018zm-5.815-5.815a.144.144 0 0 0-.145.145v4.652a.144.144 0 0 0 .145.145h5.815a.144.144 0 0 0 .145-.145v-4.652a.144.144 0 0 0-.145-.145z" class="cls-1" data-name="Path 1193" transform="translate(-128.25 -404.25)"/>
        </g>
        <g id="Path_16698" data-name="Path 16698" transform="translate(125.216 379.264)">
            <path id="Path_1194" d="M135.083 396.937h-5.815a1.022 1.022 0 0 1-1.018-1.018v-4.652a1.023 1.023 0 0 1 1.018-1.018h5.815a1.023 1.023 0 0 1 1.018 1.018v4.652a1.022 1.022 0 0 1-1.018 1.018zm-5.815-5.815a.144.144 0 0 0-.145.145v4.652a.144.144 0 0 0 .145.145h5.815a.144.144 0 0 0 .145-.145v-4.652a.144.144 0 0 0-.145-.145z" class="cls-1" data-name="Path 1194" transform="translate(-128.25 -390.25)"/>
        </g>
        <g id="Path_16699" data-name="Path 16699" transform="translate(134.52 387.405)">
            <path id="Path_1195" d="M151.083 410.937h-5.815a1.023 1.023 0 0 1-1.018-1.018v-4.652a1.023 1.023 0 0 1 1.018-1.018h5.815a1.023 1.023 0 0 1 1.018 1.018v4.652a1.023 1.023 0 0 1-1.018 1.018zm-5.815-5.815a.144.144 0 0 0-.145.145v4.652a.144.144 0 0 0 .145.145h5.815a.144.144 0 0 0 .145-.145v-4.652a.144.144 0 0 0-.145-.145z" class="cls-1" data-name="Path 1195" transform="translate(-144.25 -404.25)"/>
        </g>
        <g id="Path_16700" data-name="Path 16700" transform="translate(134.52 379.264)">
            <path id="Path_1196" d="M151.083 396.937h-5.815a1.022 1.022 0 0 1-1.018-1.018v-4.652a1.023 1.023 0 0 1 1.018-1.018h5.815a1.023 1.023 0 0 1 1.018 1.018v4.652a1.022 1.022 0 0 1-1.018 1.018zm-5.815-5.815a.144.144 0 0 0-.145.145v4.652a.144.144 0 0 0 .145.145h5.815a.144.144 0 0 0 .145-.145v-4.652a.144.144 0 0 0-.145-.145z" class="cls-1" data-name="Path 1196" transform="translate(-144.25 -390.25)"/>
        </g>
        <g id="Path_16701" data-name="Path 16701" transform="translate(143.824 379.264)">
            <path id="Path_1197" d="M167.083 396.937h-5.815a1.022 1.022 0 0 1-1.018-1.018v-4.652a1.023 1.023 0 0 1 1.018-1.018h5.815a1.023 1.023 0 0 1 1.018 1.018v4.652a1.022 1.022 0 0 1-1.018 1.018zm-5.815-5.815a.144.144 0 0 0-.145.145v4.652a.144.144 0 0 0 .145.145h5.815a.144.144 0 0 0 .145-.145v-4.652a.144.144 0 0 0-.145-.145z" class="cls-1" data-name="Path 1197" transform="translate(-160.25 -390.25)"/>
        </g>
        <g id="Path_16705" data-name="Path 16705" transform="translate(143.824 387.405)">
            <path id="Path_1198" d="M167.083 410.937h-5.815a1.023 1.023 0 0 1-1.018-1.018v-4.652a1.022 1.022 0 0 1 1.018-1.018h5.815a1.023 1.023 0 0 1 1.018 1.018v4.652a1.023 1.023 0 0 1-1.018 1.018zm-5.815-5.815a.144.144 0 0 0-.145.145v4.652a.144.144 0 0 0 .145.145h5.815a.144.144 0 0 0 .145-.145v-4.652a.144.144 0 0 0-.145-.145z" class="cls-1" data-name="Path 1198" transform="translate(-160.25 -404.25)"/>
        </g>
        <path id="Path_16702" d="M152.4 373h-27.911a3.492 3.492 0 0 0-3.489 3.489V398a3.492 3.492 0 0 0 3.489 3.489H152.4a3.492 3.492 0 0 0 3.49-3.489v-21.511A3.492 3.492 0 0 0 152.4 373zm0 27.33h-27.911a2.325 2.325 0 0 1-2.326-2.33v-17.441h32.564V398a2.325 2.325 0 0 1-2.327 2.33z" class="cls-1" data-name="Path 16702" transform="translate(0 -3.767)"/>
        <path id="Path_16703" d="M166.326 368.07v-2.907a1.163 1.163 0 1 0-2.326 0v2.907z" class="cls-1" data-name="Path 16703" transform="translate(-17.996)"/>
        <path id="Path_16704" d="M136.326 368.07v-2.907a1.163 1.163 0 1 0-2.326 0v2.907z" class="cls-1" data-name="Path 16704" transform="translate(-5.441)"/>
        <g id="check-2" transform="translate(136.433 380.807)">
            <g id="Group_17102-2" data-name="Group 17102-2">
                <path id="Path_16706-2" d="M150.988 393.007l-2.1 2.105-.768-.768a.333.333 0 1 0-.483.459l.012.012 1 1.006a.337.337 0 0 0 .471 0l2.343-2.343A.333.333 0 0 0 151 393z" class="cls-1" data-name="Path 16706-2" transform="translate(-147.54 -392.903)"/>
            </g>
        </g>
    </g>
</svg>
