<svg xmlns="http://www.w3.org/2000/svg" width="120.091" height="34.929" viewBox="0 0 120.091 34.929">
  <g id="Group_12852" data-name="Group 12852" transform="translate(-341.954 -12)">
    <circle id="Ellipse_37" data-name="Ellipse 37" cx="14.382" cy="14.382" r="14.382" transform="translate(430.243 15.044)" fill="#4fbdf3"/>
    <path id="Path_1178" data-name="Path 1178" d="M289.859,292.681a1.989,1.989,0,0,1-.283,1.178,2.9,2.9,0,0,1-.9.745,5.687,5.687,0,0,1-.9.4,10.265,10.265,0,0,1-1.18.334,13.472,13.472,0,0,1-1.348.217,13.2,13.2,0,0,1-1.4.075,11.71,11.71,0,0,1-3.464-.5,7.887,7.887,0,0,1-2.81-1.514,7.194,7.194,0,0,1-1.885-2.527,9.268,9.268,0,0,1,.063-7.185,7.713,7.713,0,0,1,2-2.6,8.387,8.387,0,0,1,2.848-1.553,10.751,10.751,0,0,1,3.3-.514,8.051,8.051,0,0,1,3.862.783,2.318,2.318,0,0,1,1.424,2.04,1.993,1.993,0,0,1-.334,1.154,2.749,2.749,0,0,1-.77.771,10.49,10.49,0,0,0-1.6-.757,5.965,5.965,0,0,0-2.169-.373,4.713,4.713,0,0,0-3.426,1.232,4.532,4.532,0,0,0-1.27,3.414,5.416,5.416,0,0,0,.347,2.038,3.753,3.753,0,0,0,2.3,2.234,4.937,4.937,0,0,0,1.643.267,4.353,4.353,0,0,0,1-.1,2.6,2.6,0,0,0,.667-.232v-2.41h-2.745a4.138,4.138,0,0,1-.3-.746,3.325,3.325,0,0,1-.141-.975,1.8,1.8,0,0,1,.424-1.335,1.5,1.5,0,0,1,1.09-.41h4.336a1.474,1.474,0,0,1,1.617,1.615Z" transform="translate(66.952 -257.377)" fill="#002395"/>
    <path id="Path_1179" data-name="Path 1179" d="M322.052,272.962a10.544,10.544,0,0,1,2.528.283,5.641,5.641,0,0,1,1.95.86,3.886,3.886,0,0,1,1.245,1.462,4.691,4.691,0,0,1,.436,2.091v5.749a1.591,1.591,0,0,1-.372,1.09,3.749,3.749,0,0,1-.885.733,9.181,9.181,0,0,1-4.7,1,10.724,10.724,0,0,1-2.45-.255,5.805,5.805,0,0,1-1.873-.771,3.518,3.518,0,0,1-1.206-1.309,3.861,3.861,0,0,1-.424-1.846,3.474,3.474,0,0,1,1.052-2.721,5.676,5.676,0,0,1,3.259-1.18l3.361-.359v-.18a1.1,1.1,0,0,0-.654-1.065,4.409,4.409,0,0,0-1.887-.32,8.711,8.711,0,0,0-1.9.2,10.146,10.146,0,0,0-1.669.512,1.773,1.773,0,0,1-.564-.7,2.222,2.222,0,0,1-.232-.988,1.643,1.643,0,0,1,.322-1.065,2.471,2.471,0,0,1,.987-.68,7.65,7.65,0,0,1,1.757-.411A15.413,15.413,0,0,1,322.052,272.962Zm.1-3.1q-.872.744-1.36,1.206t-.975.9a2.462,2.462,0,0,1-1.591-.475,1.493,1.493,0,0,1-.59-1.218,1.6,1.6,0,0,1,.282-.924,4.055,4.055,0,0,1,.951-.9l1.257-.9a5.24,5.24,0,0,1,1.116-.628,2.8,2.8,0,0,1,1.014-.193,4.377,4.377,0,0,1,.6.039,1.845,1.845,0,0,1,.552.18,3.623,3.623,0,0,1,.616.411q.332.27.847.7l1.8,1.591c.017.086.029.163.039.231a1.955,1.955,0,0,1,.012.231,1.935,1.935,0,0,1-.424,1.3,1.508,1.508,0,0,1-1.219.5,2.489,2.489,0,0,1-.461-.039,1.318,1.318,0,0,1-.424-.167,3.523,3.523,0,0,1-.5-.372q-.282-.244-.667-.655Zm.1,13.189a5.911,5.911,0,0,0,.962-.09,2.316,2.316,0,0,0,.783-.244V280.66l-1.848.155a2.827,2.827,0,0,0-1.18.309.826.826,0,0,0-.461.769,1.023,1.023,0,0,0,.4.835A2.183,2.183,0,0,0,322.257,283.047Zm1.822-17.834a2,2,0,0,1,.552-1.437,1.64,1.64,0,0,1,1.167-.512,1.871,1.871,0,0,1,1.091.294,4.309,4.309,0,0,1,.885.885l1.565,1.977a2.11,2.11,0,0,1-.616,1.192,1.434,1.434,0,0,1-.949.373,1.837,1.837,0,0,1-.873-.218,3.827,3.827,0,0,1-.82-.6Z" transform="translate(42.636 -247.975)" fill="#002395"/>
    <path id="Path_1180" data-name="Path 1180" d="M359.645,291.8a1.437,1.437,0,0,0-.449-1.169,1.865,1.865,0,0,0-1.219-.372,4,4,0,0,0-1.013.13,2.515,2.515,0,0,0-.86.384v8.9a6.273,6.273,0,0,1-.808.155,8.473,8.473,0,0,1-1.143.075,6.188,6.188,0,0,1-1.014-.075,1.731,1.731,0,0,1-.757-.309,1.479,1.479,0,0,1-.474-.628,2.708,2.708,0,0,1-.167-1.038v-7.7a1.976,1.976,0,0,1,.3-1.129,3.106,3.106,0,0,1,.808-.795,7.328,7.328,0,0,1,2.194-1,10.49,10.49,0,0,1,2.938-.385,6.921,6.921,0,0,1,4.464,1.271,4.292,4.292,0,0,1,1.566,3.529v8.031a6.268,6.268,0,0,1-.808.155,8.481,8.481,0,0,1-1.142.075,6.2,6.2,0,0,1-1.015-.075,1.728,1.728,0,0,1-.756-.309,1.482,1.482,0,0,1-.474-.628,2.692,2.692,0,0,1-.167-1.038Z" transform="translate(21.773 -261.858)" fill="#002395"/>
    <path id="Path_1181" data-name="Path 1181" d="M405.14,293.8c-.188.033-.466.079-.835.142a7.051,7.051,0,0,1-1.115.088,6.162,6.162,0,0,1-1.013-.075,1.725,1.725,0,0,1-.758-.309,1.48,1.48,0,0,1-.474-.628,2.693,2.693,0,0,1-.167-1.038V277.094q.282-.05.833-.141a6.953,6.953,0,0,1,1.117-.09,6.057,6.057,0,0,1,1.013.077,1.736,1.736,0,0,1,.758.308,1.48,1.48,0,0,1,.474.628,2.734,2.734,0,0,1,.167,1.039Z" transform="translate(-7.096 -255.982)" fill="#002395"/>
    <path id="Path_1182" data-name="Path 1182" d="M422.312,286.845a10.548,10.548,0,0,1,2.527.283,5.651,5.651,0,0,1,1.95.86,3.9,3.9,0,0,1,1.245,1.462,4.691,4.691,0,0,1,.436,2.091v5.749a1.6,1.6,0,0,1-.371,1.09,3.8,3.8,0,0,1-.885.733,9.188,9.188,0,0,1-4.7,1,10.74,10.74,0,0,1-2.452-.255,5.822,5.822,0,0,1-1.873-.771,3.512,3.512,0,0,1-1.205-1.309,3.876,3.876,0,0,1-.424-1.846,3.473,3.473,0,0,1,1.052-2.721,5.68,5.68,0,0,1,3.258-1.18l3.362-.359v-.18a1.1,1.1,0,0,0-.654-1.065,4.4,4.4,0,0,0-1.886-.32,8.722,8.722,0,0,0-1.9.2,10.092,10.092,0,0,0-1.666.512,1.78,1.78,0,0,1-.566-.7,2.255,2.255,0,0,1-.229-.988,1.649,1.649,0,0,1,.32-1.065,2.488,2.488,0,0,1,.987-.68,7.663,7.663,0,0,1,1.758-.411A15.447,15.447,0,0,1,422.312,286.845Zm-2.053,16.473a2.141,2.141,0,0,1,.641-1.551,2.39,2.39,0,0,1,3.285,0,2.2,2.2,0,0,1,0,3.105,2.385,2.385,0,0,1-3.285,0A2.14,2.14,0,0,1,420.259,303.318Zm2.258-6.388a5.925,5.925,0,0,0,.963-.09,2.318,2.318,0,0,0,.781-.244v-2.053l-1.846.155a2.833,2.833,0,0,0-1.182.309.828.828,0,0,0-.461.769,1.026,1.026,0,0,0,.4.835A2.186,2.186,0,0,0,422.517,296.93Z" transform="translate(-16.389 -261.858)" fill="#002395"/>
    <path id="Path_1183" data-name="Path 1183" d="M451.754,276.053a2.256,2.256,0,0,1,.654-1.643,2.582,2.582,0,0,1,3.464,0,2.391,2.391,0,0,1,0,3.285,2.582,2.582,0,0,1-3.464,0A2.252,2.252,0,0,1,451.754,276.053Zm4.567,15.91c-.188.033-.466.079-.833.142a7.1,7.1,0,0,1-1.117.088,6.162,6.162,0,0,1-1.013-.075,1.734,1.734,0,0,1-.758-.309,1.48,1.48,0,0,1-.474-.628,2.733,2.733,0,0,1-.167-1.038V279.7c.188-.035.466-.081.833-.141a7,7,0,0,1,1.117-.09,5.927,5.927,0,0,1,1.013.077,1.714,1.714,0,0,1,.758.308,1.481,1.481,0,0,1,.474.629,2.724,2.724,0,0,1,.167,1.039Z" transform="translate(-37.107 -254.145)" fill="#002395"/>
    <path id="Path_1184" data-name="Path 1184" d="M499.536,255.268A17.465,17.465,0,1,0,517,272.732,17.464,17.464,0,0,0,499.536,255.268Zm0,30.654a13.19,13.19,0,1,1,13.19-13.19A13.189,13.189,0,0,1,499.534,285.922Z" transform="translate(-54.956 -243.268)" fill="#002395"/>
    <g id="Group_12852-2" data-name="Group 12852" transform="translate(432.265 17.884)">
      <path id="Path_1185" data-name="Path 1185" d="M509.941,322.825s-.006.008-.008.012l.055.015Z" transform="translate(-503.623 -300.924)" fill="#c9dd03"/>
      <path id="Path_1186" data-name="Path 1186" d="M508.029,280.092l-.025-.051c.206-.031.22-.176.377-.229.179-.059.118.005.293,0,.142-.007.229.1.391.021a.558.558,0,0,1-.168.165,1.263,1.263,0,0,1-.429.229A.421.421,0,0,1,508.029,280.092Z" transform="translate(-502.488 -275.587)" fill="#c9dd03"/>
      <path id="Path_1187" data-name="Path 1187" d="M502.6,288.362a.629.629,0,0,1-.123.3,3.005,3.005,0,0,0-.432,1.349c-.033.455-.013,1.016-.409,1.24-.226.126-.545.1-.7.316a.709.709,0,0,0-.092.221q-.146.532-.293,1.064c-.126-.011-.254-.025-.38-.039a.278.278,0,0,1,.162.386.324.324,0,0,0-.408.157.657.657,0,0,0-.022.472,1.378,1.378,0,0,0,.992.949c-.081.153-.329.086-.481-.016a5.752,5.752,0,0,1-2.269-3.095,4.52,4.52,0,0,0-.473-1.289c-.215-.321-.539-.556-.754-.876-.3-.461-.358-1.058-.707-1.479-.2-.24-.5-.535-.325-.793.07-.106.218-.206.159-.318a.44.44,0,0,0-.09-.09c-.117-.126-.036-.324.023-.486a1.892,1.892,0,0,0,.056-.885,2.543,2.543,0,0,1-.67-.955c-.087-.223-.2-.5-.441-.505-.062-.173-.126-.346-.188-.519a.18.18,0,0,1-.151.109,12.275,12.275,0,0,1,3.1-7.384,1.193,1.193,0,0,0,.117-.062c.421-.246.756-.614,1.163-.882a.443.443,0,0,1,.282-.1c.1.009.2.111.159.206a.214.214,0,0,1-.081.095,8.61,8.61,0,0,1-1.554,1.054.329.329,0,0,0-.167.14.236.236,0,0,0,.159.3.693.693,0,0,0,.377-.011.608.608,0,0,0-.081.519c.114.011.151-.145.185-.254.139-.433.829-.609.784-1.064.187.1.377-.121.491-.3s.369-.36.508-.2c.008.089.019.178.027.268l.74-.187a.356.356,0,0,0,.335.623c0,.131-.12.232-.227.31a3.087,3.087,0,0,1-.876.514l.073.151a.075.075,0,0,1-.025.006c-.2.019-.413-.125-.628-.1-.131.017-.293.017-.368.15-.011.017-.058.251-.025.232l.349-.2a.57.57,0,0,1,.025.3.686.686,0,0,1,.417.092.827.827,0,0,1-.8.483c0-.1-.009-.2-.012-.3a.748.748,0,0,0-.634.447,1.792,1.792,0,0,1-.474.659,4.131,4.131,0,0,1-.461.209.419.419,0,0,0-.253.4,1.174,1.174,0,0,1,.062.232c-.009.151-.184.221-.3.318-.2.168-.251.475-.466.623a1.863,1.863,0,0,1-.545.162c-.182.056-.363.237-.29.413a.162.162,0,0,1-.207-.132,6.142,6.142,0,0,0-.619,2.022c.159.111.321-.143.352-.335s.2-.444.357-.33c-.036.276-.073.55-.108.827a.242.242,0,0,0,.012.156c.031.059.1.084.148.125.142.123.123.34.131.528a1.348,1.348,0,0,0,.2.647c-.011-.04-.019-.078-.028-.118a.781.781,0,0,0,.609-.188.907.907,0,0,1,.268-.218.578.578,0,0,1,.349.019,1.861,1.861,0,0,1,.969.485,3.022,3.022,0,0,0,.339.438c.324.273.872.153,1.167.457a1.1,1.1,0,0,1,.129.98c-.162-.089-.379.134-.284.294a.464.464,0,0,1,.313-.2c.128,0,.24.173.145.254a.514.514,0,0,1,.857.187c.313.022.628.044.941.069C501.659,287.873,502.62,287.9,502.6,288.362Z" transform="translate(-494.591 -272.855)" fill="#c9dd03"/>
      <path id="Path_1188" data-name="Path 1188" d="M508.949,274.507a.24.24,0,1,1-.16-.448c.083-.019.2-.01.223-.091a.271.271,0,0,0,0-.077.355.355,0,0,1,.281-.318,1.034,1.034,0,0,1,.454.021.562.562,0,0,1,.043.358l-.308.013c.009.171-.008.385-.166.449-.142.057-.327-.049-.446.047" transform="translate(-502.841 -271.917)" fill="#c9dd03"/>
      <path id="Path_1189" data-name="Path 1189" d="M513.331,270.459c.281-.134.517-.346.794-.488a3.653,3.653,0,0,1,1.566-.283l3.65-.114-.846.464a1.027,1.027,0,0,1-.745.185.4.4,0,0,0,.383.39c-.5.309-1.194-.007-1.721.253-.221.109-.4.315-.643.353-.141.023-.287-.015-.426.016-.234.051-.382.273-.554.438a.772.772,0,0,1-.753.23c-.26-.091-.4-.478-.188-.659a1.736,1.736,0,0,1,.371-.166c.121-.062.217-.228.126-.329-.039-.044-.1-.061-.14-.108s-.036-.123-.068-.179c-.123-.217-.467.075-.7-.012" transform="translate(-505.624 -269.574)" fill="#c9dd03"/>
      <path id="Path_1190" data-name="Path 1190" d="M522.316,273.815a2.446,2.446,0,0,0,.461-.206.575.575,0,0,1,.487-.038c.045.112-.084.214-.2.254a1.382,1.382,0,0,1-.682.06" transform="translate(-510.913 -271.904)" fill="#c9dd03"/>
      <path id="Path_1191" data-name="Path 1191" d="M532.477,274.921a.386.386,0,0,1-.14-.008,1.752,1.752,0,0,1-.548-.324,1.456,1.456,0,0,0-1.424-.086.853.853,0,0,0,.148-.531l-.064.022a2.984,2.984,0,0,0-2.387-.579c-.185.067-.352.168-.538.232a2.2,2.2,0,0,0-.589.221c-.173.123-.265.394-.117.542.126.126.327.092.5.109s.371.189.276.338c-.765.357-1.532.718-2.3,1.079a.785.785,0,0,1,.508.876c-.257.045-.505-.111-.765-.128a.705.705,0,1,0-.032,1.41c.282,0,.558-.173.832-.1a1.065,1.065,0,0,1,.368-.659,1.347,1.347,0,0,1,1.323-.5,1.5,1.5,0,0,1,.413.262q.423.335.847.675c.09-.092.179-.185.268-.273l.464.488c.078-.053.159-.1.237-.157.056.145.114.287.171.433.022-.159.042-.315.061-.472a1.139,1.139,0,0,0,.547-.073.382.382,0,0,0,.22-.455c-.036-.092-.123-.164-.14-.263-.036-.2.243-.329.424-.24a.839.839,0,0,1,.344.478c.042-.19.08-.377.122-.567a4.489,4.489,0,0,0,.74,1.265,3.037,3.037,0,0,0-1.711.174.9.9,0,0,0,.757.371c.131,0,.276-.033.377.05a.406.406,0,0,1,.109.263c.044.268.089.533.131.8a1.8,1.8,0,0,0-1.131-.228c-.394-.011-.855-.12-1-.485a.79.79,0,0,0-.18.662c-.408-.1-.877-.254-.994-.656a.634.634,0,0,1-.8-.412c-.031-.114-.039-.254-.14-.315a.341.341,0,0,0-.213-.022c-.605.07-1.209.137-1.812.208a2.587,2.587,0,0,0-.96.24.873.873,0,0,0-.488.8,3.765,3.765,0,0,0-1.345,1.369.838.838,0,0,0-.148.567c.028.151.128.279.159.427a1.759,1.759,0,0,1-.153.751c-.173.715.369,1.388.872,1.928a1.369,1.369,0,0,0,.858.538,1.568,1.568,0,0,0,.619-.165,4.5,4.5,0,0,1,1.817-.305c-.14.109.005.346.179.382a4.076,4.076,0,0,1,.528.039c.383.137.33.7.157,1.064l.265-.05c-.047.123-.095.246-.142.365.525.067.723.756.6,1.272a7.574,7.574,0,0,0-.435,1.522,2.712,2.712,0,0,0,.176.848l.671,2.1c.626.075.985-.721,1.566-.969a2.064,2.064,0,0,0,.645-.277c.164-.156.112-.522-.1-.522a.627.627,0,0,0,.542-.584c0-.081-.009-.162,0-.243a.807.807,0,0,1,.162-.313,10.19,10.19,0,0,0,1.018-2.086c.075-.193.151-.382.225-.576.285-.718.566-1.432.851-2.15.111-.282.223-.561.334-.844a.543.543,0,0,1-.785.031,3.892,3.892,0,0,1-.534-.714,2.149,2.149,0,0,1-.433-.634,3.737,3.737,0,0,1-.059-.444,3.392,3.392,0,0,0-.413-.879.878.878,0,0,1-.017-.922,35.3,35.3,0,0,1,1.6,3.16.686.686,0,0,1,.332-.394,3.871,3.871,0,0,1,.363-.137.895.895,0,0,0-.006-1.644,3.408,3.408,0,0,1-.492-.181.341.341,0,0,1-.164-.441.351.351,0,0,1,.452-.058c.148.081.257.218.4.31.1.067.218.111.327.173a2.4,2.4,0,0,1,.858,1.775c.067.36.143.718.233,1.069,0-.076,0-.154,0-.229A12.3,12.3,0,0,0,532.477,274.921Zm1.13,4.056a.432.432,0,0,1-.221-.109.6.6,0,0,1-.243-.313c-.036-.156.039-.336-.045-.475a.631.631,0,0,0-.168-.156.876.876,0,0,1-.307-.488c-.037-.168.016-.391.187-.419a.2.2,0,0,1,.206.106l-.114.062a.264.264,0,0,1,.134.438c-.019.019-.045.037-.045.064a.06.06,0,0,0,.025.045,1.556,1.556,0,0,0,.455.262c.156.081.31.232.285.4l-.148.056c-.053.053-.011.148.045.2s.128.106.132.184A.161.161,0,0,1,533.607,278.977Z" transform="translate(-511.126 -271.782)" fill="#c9dd03"/>
      <path id="Path_1192" data-name="Path 1192" d="M547.729,307.953l-.2.143a.546.546,0,0,1-.309.633c-.126.051-.294.073-.336.2-.035.11.05.221.061.335.018.19-.159.332-.288.474s-.2.407-.026.492a.352.352,0,0,0,.129.028.8.8,0,0,0,.54-.086c.434-.31.021-1.15.45-1.469.061-.045.137-.077.171-.145C548.022,308.36,547.649,308.161,547.729,307.953Z" transform="translate(-525.168 -292.169)" fill="#c9dd03"/>
    </g>
  </g>
</svg>
