<svg xmlns="http://www.w3.org/2000/svg" width="24.66" height="22.007" viewBox="0 0 24.66 22.007">
  <g id="Group_12852" data-name="Group 12852" transform="translate(0 0)">
    <path id="Path_1185" data-name="Path 1185" d="M509.941,322.825s-.006.008-.008.012l.055.015Z" transform="translate(-503.623 -300.924)" fill="#c9dd03"/>
    <path id="Path_1186" data-name="Path 1186" d="M508.029,280.092l-.025-.051c.206-.031.22-.176.377-.229.179-.059.118.005.293,0,.142-.007.229.1.391.021a.558.558,0,0,1-.168.165,1.263,1.263,0,0,1-.429.229A.421.421,0,0,1,508.029,280.092Z" transform="translate(-502.488 -275.587)" fill="#c9dd03"/>
    <path id="Path_1187" data-name="Path 1187" d="M502.6,288.362a.629.629,0,0,1-.123.3,3.005,3.005,0,0,0-.432,1.349c-.033.455-.013,1.016-.409,1.24-.226.126-.545.1-.7.316a.709.709,0,0,0-.092.221q-.146.532-.293,1.064c-.126-.011-.254-.025-.38-.039a.278.278,0,0,1,.162.386.324.324,0,0,0-.408.157.657.657,0,0,0-.022.472,1.378,1.378,0,0,0,.992.949c-.081.153-.329.086-.481-.016a5.752,5.752,0,0,1-2.269-3.095,4.52,4.52,0,0,0-.473-1.289c-.215-.321-.539-.556-.754-.876-.3-.461-.358-1.058-.707-1.479-.2-.24-.5-.535-.325-.793.07-.106.218-.206.159-.318a.44.44,0,0,0-.09-.09c-.117-.126-.036-.324.023-.486a1.892,1.892,0,0,0,.056-.885,2.543,2.543,0,0,1-.67-.955c-.087-.223-.2-.5-.441-.505-.062-.173-.126-.346-.188-.519a.18.18,0,0,1-.151.109,12.275,12.275,0,0,1,3.1-7.384,1.193,1.193,0,0,0,.117-.062c.421-.246.756-.614,1.163-.882a.443.443,0,0,1,.282-.1c.1.009.2.111.159.206a.214.214,0,0,1-.081.095,8.61,8.61,0,0,1-1.554,1.054.329.329,0,0,0-.167.14.236.236,0,0,0,.159.3.693.693,0,0,0,.377-.011.608.608,0,0,0-.081.519c.114.011.151-.145.185-.254.139-.433.829-.609.784-1.064.187.1.377-.121.491-.3s.369-.36.508-.2c.008.089.019.178.027.268l.74-.187a.356.356,0,0,0,.335.623c0,.131-.12.232-.227.31a3.087,3.087,0,0,1-.876.514l.073.151a.075.075,0,0,1-.025.006c-.2.019-.413-.125-.628-.1-.131.017-.293.017-.368.15-.011.017-.058.251-.025.232l.349-.2a.57.57,0,0,1,.025.3.686.686,0,0,1,.417.092.827.827,0,0,1-.8.483c0-.1-.009-.2-.012-.3a.748.748,0,0,0-.634.447,1.792,1.792,0,0,1-.474.659,4.131,4.131,0,0,1-.461.209.419.419,0,0,0-.253.4,1.174,1.174,0,0,1,.062.232c-.009.151-.184.221-.3.318-.2.168-.251.475-.466.623a1.863,1.863,0,0,1-.545.162c-.182.056-.363.237-.29.413a.162.162,0,0,1-.207-.132,6.142,6.142,0,0,0-.619,2.022c.159.111.321-.143.352-.335s.2-.444.357-.33c-.036.276-.073.55-.108.827a.242.242,0,0,0,.012.156c.031.059.1.084.148.125.142.123.123.34.131.528a1.348,1.348,0,0,0,.2.647c-.011-.04-.019-.078-.028-.118a.781.781,0,0,0,.609-.188.907.907,0,0,1,.268-.218.578.578,0,0,1,.349.019,1.861,1.861,0,0,1,.969.485,3.022,3.022,0,0,0,.339.438c.324.273.872.153,1.167.457a1.1,1.1,0,0,1,.129.98c-.162-.089-.379.134-.284.294a.464.464,0,0,1,.313-.2c.128,0,.24.173.145.254a.514.514,0,0,1,.857.187c.313.022.628.044.941.069C501.659,287.873,502.62,287.9,502.6,288.362Z" transform="translate(-494.591 -272.855)" fill="#c9dd03"/>
    <path id="Path_1188" data-name="Path 1188" d="M508.949,274.507a.24.24,0,1,1-.16-.448c.083-.019.2-.01.223-.091a.271.271,0,0,0,0-.077.355.355,0,0,1,.281-.318,1.034,1.034,0,0,1,.454.021.562.562,0,0,1,.043.358l-.308.013c.009.171-.008.385-.166.449-.142.057-.327-.049-.446.047" transform="translate(-502.841 -271.917)" fill="#c9dd03"/>
    <path id="Path_1189" data-name="Path 1189" d="M513.331,270.459c.281-.134.517-.346.794-.488a3.653,3.653,0,0,1,1.566-.283l3.65-.114-.846.464a1.027,1.027,0,0,1-.745.185.4.4,0,0,0,.383.39c-.5.309-1.194-.007-1.721.253-.221.109-.4.315-.643.353-.141.023-.287-.015-.426.016-.234.051-.382.273-.554.438a.772.772,0,0,1-.753.23c-.26-.091-.4-.478-.188-.659a1.736,1.736,0,0,1,.371-.166c.121-.062.217-.228.126-.329-.039-.044-.1-.061-.14-.108s-.036-.123-.068-.179c-.123-.217-.467.075-.7-.012" transform="translate(-505.624 -269.574)" fill="#c9dd03"/>
    <path id="Path_1190" data-name="Path 1190" d="M522.316,273.815a2.446,2.446,0,0,0,.461-.206.575.575,0,0,1,.487-.038c.045.112-.084.214-.2.254a1.382,1.382,0,0,1-.682.06" transform="translate(-510.913 -271.904)" fill="#c9dd03"/>
    <path id="Path_1191" data-name="Path 1191" d="M532.477,274.921a.386.386,0,0,1-.14-.008,1.752,1.752,0,0,1-.548-.324,1.456,1.456,0,0,0-1.424-.086.853.853,0,0,0,.148-.531l-.064.022a2.984,2.984,0,0,0-2.387-.579c-.185.067-.352.168-.538.232a2.2,2.2,0,0,0-.589.221c-.173.123-.265.394-.117.542.126.126.327.092.5.109s.371.189.276.338c-.765.357-1.532.718-2.3,1.079a.785.785,0,0,1,.508.876c-.257.045-.505-.111-.765-.128a.705.705,0,1,0-.032,1.41c.282,0,.558-.173.832-.1a1.065,1.065,0,0,1,.368-.659,1.347,1.347,0,0,1,1.323-.5,1.5,1.5,0,0,1,.413.262q.423.335.847.675c.09-.092.179-.185.268-.273l.464.488c.078-.053.159-.1.237-.157.056.145.114.287.171.433.022-.159.042-.315.061-.472a1.139,1.139,0,0,0,.547-.073.382.382,0,0,0,.22-.455c-.036-.092-.123-.164-.14-.263-.036-.2.243-.329.424-.24a.839.839,0,0,1,.344.478c.042-.19.08-.377.122-.567a4.489,4.489,0,0,0,.74,1.265,3.037,3.037,0,0,0-1.711.174.9.9,0,0,0,.757.371c.131,0,.276-.033.377.05a.406.406,0,0,1,.109.263c.044.268.089.533.131.8a1.8,1.8,0,0,0-1.131-.228c-.394-.011-.855-.12-1-.485a.79.79,0,0,0-.18.662c-.408-.1-.877-.254-.994-.656a.634.634,0,0,1-.8-.412c-.031-.114-.039-.254-.14-.315a.341.341,0,0,0-.213-.022c-.605.07-1.209.137-1.812.208a2.587,2.587,0,0,0-.96.24.873.873,0,0,0-.488.8,3.765,3.765,0,0,0-1.345,1.369.838.838,0,0,0-.148.567c.028.151.128.279.159.427a1.759,1.759,0,0,1-.153.751c-.173.715.369,1.388.872,1.928a1.369,1.369,0,0,0,.858.538,1.568,1.568,0,0,0,.619-.165,4.5,4.5,0,0,1,1.817-.305c-.14.109.005.346.179.382a4.076,4.076,0,0,1,.528.039c.383.137.33.7.157,1.064l.265-.05c-.047.123-.095.246-.142.365.525.067.723.756.6,1.272a7.574,7.574,0,0,0-.435,1.522,2.712,2.712,0,0,0,.176.848l.671,2.1c.626.075.985-.721,1.566-.969a2.064,2.064,0,0,0,.645-.277c.164-.156.112-.522-.1-.522a.627.627,0,0,0,.542-.584c0-.081-.009-.162,0-.243a.807.807,0,0,1,.162-.313,10.19,10.19,0,0,0,1.018-2.086c.075-.193.151-.382.225-.576.285-.718.566-1.432.851-2.15.111-.282.223-.561.334-.844a.543.543,0,0,1-.785.031,3.892,3.892,0,0,1-.534-.714,2.149,2.149,0,0,1-.433-.634,3.737,3.737,0,0,1-.059-.444,3.392,3.392,0,0,0-.413-.879.878.878,0,0,1-.017-.922,35.3,35.3,0,0,1,1.6,3.16.686.686,0,0,1,.332-.394,3.871,3.871,0,0,1,.363-.137.895.895,0,0,0-.006-1.644,3.408,3.408,0,0,1-.492-.181.341.341,0,0,1-.164-.441.351.351,0,0,1,.452-.058c.148.081.257.218.4.31.1.067.218.111.327.173a2.4,2.4,0,0,1,.858,1.775c.067.36.143.718.233,1.069,0-.076,0-.154,0-.229A12.3,12.3,0,0,0,532.477,274.921Zm1.13,4.056a.432.432,0,0,1-.221-.109.6.6,0,0,1-.243-.313c-.036-.156.039-.336-.045-.475a.631.631,0,0,0-.168-.156.876.876,0,0,1-.307-.488c-.037-.168.016-.391.187-.419a.2.2,0,0,1,.206.106l-.114.062a.264.264,0,0,1,.134.438c-.019.019-.045.037-.045.064a.06.06,0,0,0,.025.045,1.556,1.556,0,0,0,.455.262c.156.081.31.232.285.4l-.148.056c-.053.053-.011.148.045.2s.128.106.132.184A.161.161,0,0,1,533.607,278.977Z" transform="translate(-511.126 -271.782)" fill="#c9dd03"/>
    <path id="Path_1192" data-name="Path 1192" d="M547.729,307.953l-.2.143a.546.546,0,0,1-.309.633c-.126.051-.294.073-.336.2-.035.11.05.221.061.335.018.19-.159.332-.288.474s-.2.407-.026.492a.352.352,0,0,0,.129.028.8.8,0,0,0,.54-.086c.434-.31.021-1.15.45-1.469.061-.045.137-.077.171-.145C548.022,308.36,547.649,308.161,547.729,307.953Z" transform="translate(-525.168 -292.169)" fill="#c9dd03"/>
  </g>
</svg>
