<svg xmlns="http://www.w3.org/2000/svg" width="41.89" height="34.035" viewBox="0 0 41.89 34.035">
  <g id="Group_12942" data-name="Group 12942" transform="translate(0 -3)">
    <g id="Group_12939" data-name="Group 12939" transform="translate(0 3)">
      <path id="Path_1209" data-name="Path 1209" d="M36.653,8.236V3H0V31.8s0,5.236,5.236,5.236H37.962s3.927-.081,3.927-5.236V8.236ZM5.236,34.417A2.564,2.564,0,0,1,2.618,31.8V5.618H34.035V31.8a3.786,3.786,0,0,0,.885,2.618Z" transform="translate(0 -3)" fill="#009fee"/>
      <rect id="Rectangle_1024" data-name="Rectangle 1024" width="26.181" height="2.618" transform="translate(5.236 7.854)" fill="#009fee"/>
      <rect id="Rectangle_1025" data-name="Rectangle 1025" width="9.163" height="2.618" transform="translate(19.636 23.563)" fill="#009fee"/>
      <rect id="Rectangle_1026" data-name="Rectangle 1026" width="11.781" height="2.618" transform="translate(19.636 18.327)" fill="#009fee"/>
      <rect id="Rectangle_1027" data-name="Rectangle 1027" width="11.781" height="2.618" transform="translate(19.636 13.091)" fill="#009fee"/>
      <rect id="Rectangle_1028" data-name="Rectangle 1028" width="11.781" height="13.091" transform="translate(5.236 13.091)" fill="#009fee"/>
    </g>
  </g>
</svg>
