<svg id="Group_12840" data-name="Group 12840" xmlns="http://www.w3.org/2000/svg" width="40.067" height="40.067" viewBox="0 0 40.067 40.067">
  <path id="Path_1159" data-name="Path 1159" d="M0,0H40.067V40.067H0Z" fill="none"/>
  <path id="Path_1160" data-name="Path 1160" d="M18.025,17.943A22.028,22.028,0,0,0,6.873,12.351,3.341,3.341,0,0,0,3,15.656V26.074c0,2.8,1.2,4.274,2.855,4.491a21.85,21.85,0,0,1,11.069,4.791,1.755,1.755,0,0,0,2.12.067A21.987,21.987,0,0,1,30.2,30.581a3.5,3.5,0,0,0,2.855-3.372V15.656a3.341,3.341,0,0,0-3.873-3.306A22.028,22.028,0,0,0,18.025,17.943Zm0-5.927a5.008,5.008,0,1,0-5.008-5.008A5,5,0,0,0,18.025,12.017Z" transform="translate(2.008 1.339)" fill="#002395"/>
</svg>
