<svg xmlns="http://www.w3.org/2000/svg" id="Group_12498" width="35.492" height="35.492" data-name="Group 12498" viewBox="0 0 35.492 35.492">
    <defs>
        <style>
            .cls-1,.cls-4{fill:none}.cls-1{stroke:#002395;stroke-width:2px}.cls-2{fill:#002395;stroke:rgba(0,0,0,0)}.cls-3{stroke:none}
        </style>
    </defs>
    <g id="Ellipse_28" class="cls-1" data-name="Ellipse 28">
        <circle cx="17.746" cy="17.746" r="17.746" class="cls-3"/>
        <circle cx="17.746" cy="17.746" r="16.746" class="cls-4"/>
    </g>
    <g id="Group_651" data-name="Group 651" transform="translate(7.808 7.808)">
        <path id="Path_748" d="M18.122 6.993h-5.4l.813-3.912.026-.274a1.289 1.289 0 0 0-.377-.907l-.909-.9-5.633 5.642a1.674 1.674 0 0 0-.505 1.207v8.561a1.717 1.717 0 0 0 1.712 1.712h7.7a1.7 1.7 0 0 0 1.575-1.044l2.585-6.035a1.691 1.691 0 0 0 .12-.625V8.7a1.717 1.717 0 0 0-1.707-1.707zm0 3.424l-2.568 5.993h-7.7V7.849l3.715-3.715-.955 4.566h7.508zM1 7.849h3.424v10.273H1z" class="cls-2" data-name="Path 748" transform="translate(-1 -1)"/>
    </g>
</svg>
