<svg xmlns="http://www.w3.org/2000/svg" id="Group_12956" width="41.418" height="41.418" data-name="Group 12956" viewBox="0 0 41.418 41.418">
    <defs>
        <style>
            .cls-1{fill:none}.cls-2{fill:#009fee}
        </style>
    </defs>
    <path id="Path_1217" d="M0 0h41.418v41.418H0z" class="cls-1" data-name="Path 1217"/>
    <path id="Path_1218" d="M17.08 2A12.071 12.071 0 0 0 5 14.08c0 7.2 7.628 17.119 10.769 20.9a1.713 1.713 0 0 0 2.64 0c3.124-3.779 10.751-13.7 10.751-20.9A12.071 12.071 0 0 0 17.08 2zm0 16.395a4.314 4.314 0 1 1 4.314-4.314 4.316 4.316 0 0 1-4.314 4.314z" class="cls-2" data-name="Path 1218" transform="translate(3.629 1.451)"/>
</svg>
