<?xml version="1.0" encoding="utf-8"?>
<!-- Generator: Adobe Illustrator 22.0.1, SVG Export Plug-In . SVG Version: 6.00 Build 0)  -->
<svg version="1.1" baseProfile="basic" id="Layer_1"
	 xmlns="http://www.w3.org/2000/svg" xmlns:xlink="http://www.w3.org/1999/xlink" x="0px" y="0px" viewBox="0 0 375.1 148"
	 xml:space="preserve">
<style type="text/css">
	.st0{fill:#002395;}
	.st1{fill:#009FDA;}
</style>
<g id="XMLID_791_">
	<g id="XMLID_794_">
		<path id="XMLID_929_" class="st0" d="M55,3.6h28.3c1.9,0,4,1.5,4.7,3.3l49.1,134.3c0.7,1.8-0.4,3.2-2.3,3.2H107
			c-1.9,0-4-1.5-4.6-3.3l-9.7-29H43.1l-9.7,29c-0.6,1.8-2.7,3.3-4.6,3.3H2.5c-1.9,0-2.9-1.4-2.3-3.2L50.3,6.8C51,5,53.1,3.6,55,3.6z
			 M85.1,87.3L68,34.1L50.5,87.3H85.1z"/>
		<path id="XMLID_795_" class="st0" d="M270.7,3.6H320c8.7,0,16.1,1,22.2,3.1c6,2,11,4.7,14.8,8.1c3.8,3.4,6.5,7.3,8.2,11.7
			c1.7,4.4,2.5,9.1,2.5,13.8c0,4.5-0.8,8.5-2.4,11.9c-1.6,3.4-3.5,6.4-5.7,8.9c-2.2,2.5-4.5,4.4-7,5.8c-2.4,1.4-4.5,2.3-6.2,2.7
			c2.5,0.6,5.5,1.6,8.8,3.1c3.3,1.5,6.4,3.6,9.4,6.3c3,2.8,5.5,6.2,7.5,10.4c2,4.1,3.1,9,3.1,14.7c0,7.3-1.3,13.5-3.9,18.6
			c-2.6,5.1-6.3,9.2-11,12.5c-4.7,3.2-10.5,5.6-17.3,7c-6.8,1.5-14.5,2.2-22.9,2.2h-49.3c-1.9,0-3.5-1.5-3.5-3.5V7
			C267.3,5.1,268.8,3.6,270.7,3.6z M317.1,59.9c2.4,0,4.8-0.3,7.1-0.8c2.3-0.6,4.3-1.4,6.1-2.6c1.8-1.2,3.2-2.8,4.3-4.9
			c1.1-2,1.7-4.5,1.7-7.5c0-3.1-0.6-5.7-1.7-7.7c-1.1-2-2.6-3.6-4.4-4.8c-1.9-1.2-3.9-2-6.2-2.5c-2.3-0.5-4.6-0.7-6.9-0.7h-18.8
			v31.7H317.1z M318.9,119.8c2.3,0,4.8-0.2,7.6-0.5c2.8-0.4,5.4-1.2,7.8-2.4c2.4-1.3,4.4-3.1,6-5.5c1.6-2.4,2.4-5.7,2.4-9.9
			c0-3.8-0.8-6.9-2.3-9.3c-1.6-2.4-3.5-4.2-5.9-5.6c-2.4-1.3-5-2.2-7.8-2.7c-2.8-0.5-5.4-0.8-7.8-0.8h-20.7v36.7H318.9z"/>
	</g>
	<path id="XMLID_793_" class="st1" d="M208.5,99.1c-13.9,0-25.1-11.3-25.1-25.1c0-13.9,11.2-25.1,25.1-25.1
		c13.9,0,25.1,11.3,25.1,25.1C233.6,87.9,222.4,99.1,208.5,99.1z"/>
	<path id="XMLID_792_" class="st0" d="M236.4,106.9c-7.6,7.3-17.7,11.7-28.9,11.7c-23.7,0-42.8-20-42.8-44.6
		c0-24.6,19.2-44.5,42.8-44.5c10.7,0,20.6,4.1,28.1,10.9c1.4,1.3,3.6,1.3,4.9,0l15.2-15.2c1.4-1.4,1.4-3.6,0-4.9
		C242.5,7.7,224.8,0,205.2,0c-40.6,0-73.5,33.1-73.5,74c0,40.9,32.9,74,73.5,74c20,0,38-8,51.2-21c1.4-1.3,1.3-3.6,0-4.9l-15.2-15.2
		C239.8,105.5,237.7,105.5,236.4,106.9z"/>
</g>
</svg>
