<svg id="google" xmlns="http://www.w3.org/2000/svg" width="24.005" height="24.005" viewBox="0 0 24.005 24.005">
  <rect id="Rectangle_990" data-name="Rectangle 990" width="24.005" height="24.005" rx="2" fill="none"/>
  <g id="Group_12885" data-name="Group 12885" transform="translate(1 1)">
    <path id="Path_1200" data-name="Path 1200" d="M14.149,6.5a6.467,6.467,0,0,1,4.174,1.524L21.593,4.91a10.989,10.989,0,0,0-17.3,3.209L7.98,10.961A6.509,6.509,0,0,1,14.149,6.5Z" transform="translate(-3.146 -2)" fill="#d94f3d"/>
    <path id="Path_1201" data-name="Path 1201" d="M6.5,19.119a6.472,6.472,0,0,1,.333-2.041L3.147,14.236a10.97,10.97,0,0,0,0,9.766L6.834,21.16A6.472,6.472,0,0,1,6.5,19.119Z" transform="translate(-2 -8.117)" fill="#f2c042"/>
    <path id="Path_1202" data-name="Path 1202" d="M34.6,20H24.1v4.5h5.951a5.365,5.365,0,0,1-2.278,3.082L31.432,30.4C33.77,28.3,35.144,24.892,34.6,20Z" transform="translate(-13.048 -10.998)" fill="#5085ed"/>
    <path id="Path_1203" data-name="Path 1203" d="M17.87,31.622a6.991,6.991,0,0,1-3.722.919,6.509,6.509,0,0,1-6.168-4.46L4.293,30.923a11.014,11.014,0,0,0,9.856,6.119,10.935,10.935,0,0,0,7.381-2.6Z" transform="translate(-3.146 -15.038)" fill="#57a75c"/>
  </g>
</svg>
